# xmcd
#
# Track frame offsets: 
#        150
#        17159
#        29294
#        42175
#        60787
#        75035
#        89092
#        107209
#        121371
#        139278
#        153344
#        165698
#        178793
#        195361
#        208881
#        217301
#        228794
#        240392
#
# Disc length: 3371 seconds
#
# Revision: 9
# Processed by: cddbd v1.5.2PL0 Copyright (c) Steve Scherf et al.
# Submitted via: ExactAudioCopyFreeDBPlugin 1.0
#
DISCID=ec0d2912
DTITLE=Charles Aznavour - Grandes Éxitos De Charles Aznavour
DYEAR=1995
DGENRE=Ballad
TTITLE0=Adios A La Mama [La Mamma]
TTITLE1=Venecia Sin Ti [Que C'est Triste Venise]
TTITLE2=Apaga La Luz [Eteins La Lumière]
TTITLE3=Buen Aniversario [Bon Anniversaire]
TTITLE4=Con [Avec]
TTITLE5=Debes Saber [Il Faut Savoir]
TTITLE6=La Bohemia [La Bohème]
TTITLE7=Isabel [Isabelle]
TTITLE8=Morir De Amor [Mourir D'aimer]
TTITLE9=Te Espero [Je T'attends]
TTITLE10=Y Por Tanto [Et Pourtant]
TTITLE11=Idiota Te Quiero [Idiote, Je T'aime]
TTITLE12=Quien [Qui]
TTITLE13=Muy Poco Antes De La Guerra [Avant La Guerre]
TTITLE14=Quedate [Reste]
TTITLE15=Viví [J'ai Vécu]
TTITLE16=De Quererte Así [De T'avoir Aimée]
TTITLE17=C'est Fini
EXTD=YEAR: 1995
EXTT0=
EXTT1=
EXTT2=
EXTT3=
EXTT4=
EXTT5=
EXTT6=
EXTT7=
EXTT8=
EXTT9=
EXTT10=
EXTT11=
EXTT12=
EXTT13=
EXTT14=
EXTT15=
EXTT16=
EXTT17=
PLAYORDER=
